<svg xmlns="http://www.w3.org/2000/svg" width="24" height="24" viewBox="0 0 24 24">
    <g fill="none" fill-rule="evenodd">
        <g fill="#3D3D3D">
            <path d="M19.984 7.16c.01.02.016.042.016.063v8.307c0 .43-.104.837-.312 1.224-.209.386-.521.58-.938.58h-13c-.417 0-.812-.194-1.187-.58C4.187 16.367 4 15.96 4 15.53V7.223c0-.021.005-.042.016-.064-.021-.075-.021-.147 0-.217.02-.07.057-.137.109-.201.01-.011.02-.025.031-.04.01-.017.026-.03.047-.041.156-.215.378-.378.664-.491.287-.113.58-.169.883-.169h13c.333 0 .602.072.805.217.203.145.336.363.398.652.021.043.034.089.04.137.004.048.002.1-.009.153zM5.516 7.03c-.084 0-.167.006-.25.016L12 12.584l6.75-5.554H5.516zm13.234 9.273c.135 0 .21-.094.227-.282.015-.188.023-.351.023-.49V8.156l-6.672 5.49c-.052.043-.104.075-.156.096-.052.022-.11.033-.172.033-.063 0-.12-.011-.172-.033-.052-.021-.104-.053-.156-.096L5 8.157v7.373c0 .14.091.303.273.491.183.188.342.282.477.282h13z"/>
        </g>
    </g>
</svg>
