<svg xmlns="http://www.w3.org/2000/svg" width="24" height="24" viewBox="0 0 24 24">
    <g fill="none" fill-rule="evenodd">
        <g fill="#3D3D3D">
            <path d="M12.176 4.47C9.32 4.475 7.003 6.79 7 9.648c0 4.116 4.624 9.493 4.82 9.72l.356.41.356-.41c.197-.227 4.82-5.604 4.82-9.72 0-2.855-2.322-5.176-5.176-5.176zm0 13.85c-1.078-1.34-4.235-5.533-4.235-8.673 0-2.335 1.9-4.235 4.235-4.235 2.336 0 4.236 1.9 4.236 4.235 0 3.137-3.157 7.333-4.236 8.673zm0-11.366c-1.556 0-2.823 1.267-2.823 2.824S10.62 12.6 12.176 12.6c1.557 0 2.824-1.266 2.824-2.823s-1.267-2.824-2.824-2.824zm0 4.706c-1.038 0-1.882-.844-1.882-1.882 0-1.038.844-1.882 1.882-1.882 1.039 0 1.883.844 1.883 1.882 0 1.038-.844 1.882-1.883 1.882z"/>
        </g>
    </g>
</svg>
