<svg xmlns="http://www.w3.org/2000/svg" width="24" height="24" viewBox="0 0 24 24">
    <g fill="none" fill-rule="evenodd">
        <g fill="#3D3D3D">
            <path d="M15.4 18.757c-1.978 0-4.58-1.376-6.815-3.59-2.988-3.01-4.342-6.62-3.16-8.469.043-.107.108-.193.194-.258l1.096-1.096c.237-.215.538-.344.881-.344.387 0 .753.172 1.054.451l1.956 1.956c.559.56.602 1.42.086 1.913l-1.247 1.247c.494.71 1.075 1.397 1.698 2.042.645.645 1.333 1.204 2.042 1.698l1.247-1.246c.236-.237.537-.344.881-.344.387 0 .752.172 1.053.451l1.956 1.956c.258.258.409.602.452.946.021.365-.108.73-.344.967l-1.096 1.096c-.065.065-.15.13-.258.194-.473.28-1.032.43-1.677.43zM7.595 5.86c-.086 0-.193.021-.257.107L6.22 7.063s-.022.022-.022.043l-.021.043c-.989 1.484.344 4.73 3.03 7.395 2.021 2.042 4.45 3.353 6.191 3.353.494 0 .881-.108 1.204-.301l.043-.022.043-.021 1.096-1.096c.107-.108.107-.237.107-.301 0-.15-.086-.28-.193-.409l-1.956-1.977c-.129-.13-.28-.194-.43-.194-.086 0-.193.022-.258.108l-1.268 1.268c-.28.28-.73.301-1.053.065-.753-.516-1.483-1.14-2.15-1.806-.688-.688-1.29-1.397-1.805-2.15-.237-.343-.215-.795.064-1.053l1.268-1.268c.172-.172.13-.494-.086-.71L8.07 6.076c-.172-.15-.322-.215-.473-.215z"/>
        </g>
    </g>
</svg>
